<?xml version="1.0" standalone="no"?>
<!DOCTYPE svg PUBLIC "-//W3C//DTD SVG 20010904//EN"
 "http://www.w3.org/TR/2001/REC-SVG-20010904/DTD/svg10.dtd">
<svg version="1.0" xmlns="http://www.w3.org/2000/svg"
 width="972.000000pt" height="972.000000pt" viewBox="0 0 972.000000 972.000000"
 preserveAspectRatio="xMidYMid meet">
<metadata>
Created by potrace 1.14, written by Peter Selinger 2001-2017
</metadata>
<g transform="translate(0.000000,972.000000) scale(0.100000,-0.100000)"
fill="#000000" stroke="none">
<path d="M4328 9624 c-2 -1 -116 -5 -253 -8 -311 -8 -349 -11 -510 -42 -272
-53 -630 -156 -832 -240 -213 -88 -498 -246 -655 -365 -103 -77 -325 -300
-405 -405 -188 -250 -335 -527 -417 -785 -75 -241 -160 -575 -191 -749 -28
-162 -28 -2463 -1 -2620 3 -14 7 -45 10 -70 12 -101 69 -415 102 -561 77 -346
181 -521 457 -773 107 -98 182 -152 299 -217 159 -88 202 -120 215 -161 11
-33 21 -116 38 -303 2 -27 7 -78 11 -113 7 -68 9 -90 18 -192 17 -177 38 -361
46 -410 5 -30 12 -77 15 -105 44 -365 104 -647 152 -723 8 -13 12 -26 9 -29
-6 -6 58 -128 78 -149 6 -6 38 -44 71 -84 172 -208 565 -407 910 -461 103 -16
334 -16 405 -1 30 7 81 29 113 48 180 111 464 501 511 701 24 107 61 139 163
148 32 3 139 8 238 11 99 2 203 7 231 9 l51 5 33 -93 c50 -138 129 -289 239
-454 108 -162 182 -244 264 -297 95 -61 138 -69 367 -72 113 -1 240 2 282 7
162 19 418 127 568 241 110 83 300 271 334 330 45 79 102 227 134 353 66 253
163 781 201 1085 31 248 31 247 37 360 4 58 10 113 15 122 5 9 9 34 9 55 0 53
17 72 105 118 159 83 421 312 530 463 53 75 141 272 124 282 -6 5 -9 15 -6 25
4 9 11 14 16 11 12 -8 72 211 74 269 1 28 7 45 15 45 6 0 12 6 12 13 1 6 7 48
15 92 34 182 47 272 46 308 -1 22 2 36 8 33 13 -9 19 14 30 119 9 85 15 152
27 340 2 44 5 575 5 1180 l-1 1100 -64 250 c-36 138 -73 269 -82 290 -10 22
-19 51 -21 65 -13 95 -161 455 -250 612 -70 122 -168 266 -219 321 -16 18 -52
59 -79 92 -69 82 -88 101 -180 181 -189 165 -335 267 -525 367 -107 57 -361
168 -389 172 -9 1 -33 9 -53 18 -44 20 -58 21 -58 5 0 -6 -10 -2 -21 11 -15
15 -29 21 -45 18 -13 -2 -24 0 -24 5 0 14 -52 31 -60 19 -3 -6 -13 -3 -23 9
-11 14 -29 20 -55 20 -21 0 -42 4 -48 9 -14 13 -71 29 -144 41 -36 5 -94 17
-130 25 -190 45 -343 65 -532 70 -211 7 -1355 14 -1360 9z"/>
</g>
</svg>
