<?xml version="1.0" standalone="no"?>
<!DOCTYPE svg PUBLIC "-//W3C//DTD SVG 20010904//EN"
 "http://www.w3.org/TR/2001/REC-SVG-20010904/DTD/svg10.dtd">
<svg version="1.0" xmlns="http://www.w3.org/2000/svg"
 width="500.000000pt" height="500.000000pt" viewBox="0 0 500.000000 500.000000"
 preserveAspectRatio="xMidYMid meet">
<metadata>
Created by potrace 1.14, written by Peter Selinger 2001-2017
</metadata>
<g transform="translate(0.000000,500.000000) scale(0.100000,-0.100000)"
fill="#000000" stroke="none">
<path d="M1403 3969 c-96 -37 -163 -146 -163 -267 l0 -42 -55 0 c-69 0 -105
-29 -105 -84 0 -57 35 -88 103 -94 l57 -4 0 -223 c0 -123 3 -231 6 -240 11
-28 60 -45 133 -45 59 0 74 4 98 24 l28 24 3 230 3 229 79 5 c86 5 113 19 125
65 8 33 -12 90 -35 103 -10 6 -53 10 -94 10 l-76 0 0 50 c0 67 22 90 88 90 65
0 94 18 110 65 16 48 8 90 -21 110 -34 24 -217 20 -284 -6z"/>
<path d="M2057 3686 c-147 -53 -212 -173 -205 -380 4 -130 28 -196 96 -264
109 -109 313 -109 435 -2 50 44 57 47 57 25 0 -29 28 -71 55 -83 14 -7 57 -12
94 -12 53 0 72 4 84 18 10 10 17 24 17 31 0 7 -27 76 -60 153 l-61 142 27 65
c41 103 84 233 84 256 0 39 -30 55 -103 55 -82 0 -121 -27 -132 -90 l-7 -40
-53 54 c-35 35 -69 59 -101 70 -58 19 -174 20 -227 2z m188 -182 c39 -18 78
-71 105 -141 18 -48 18 -51 1 -89 -42 -93 -122 -148 -180 -125 -50 21 -66 64
-66 176 0 113 14 158 54 180 34 18 46 18 86 -1z"/>
<path d="M3190 3684 c-19 -8 -52 -31 -72 -51 -21 -20 -39 -35 -41 -32 -1 2 -7
17 -13 34 -12 39 -46 55 -116 55 -46 0 -62 -5 -85 -24 l-28 -24 0 -312 0 -312
28 -24 c24 -20 39 -24 98 -24 65 0 73 2 100 29 l29 29 0 204 c0 184 2 206 20
235 32 53 102 56 121 6 5 -13 9 -119 9 -234 l0 -211 29 -29 c27 -27 35 -29
101 -29 62 0 74 3 95 25 25 24 25 26 25 212 0 200 6 242 42 280 26 28 58 29
89 4 24 -19 24 -22 29 -250 6 -271 3 -263 105 -269 78 -5 119 9 135 48 8 20
11 99 8 272 -4 198 -8 251 -22 288 -34 91 -99 126 -218 118 -79 -5 -118 -21
-173 -69 l-35 -31 -20 23 c-10 13 -19 27 -20 30 0 3 -17 15 -39 27 -46 26
-128 29 -181 6z"/>
<path d="M1970 2331 c-329 -70 -521 -182 -659 -384 -77 -113 -149 -335 -171
-525 -13 -112 -13 -507 0 -687 11 -157 51 -369 81 -432 40 -82 174 -204 254
-230 24 -8 31 -16 33 -41 l3 -32 75 0 74 0 0 68 0 69 70 27 c99 39 137 104 90
154 -44 46 -188 9 -278 -72 l-39 -36 -29 22 c-109 81 -132 122 -162 284 -34
180 -46 328 -46 549 0 347 37 574 121 745 53 106 187 240 298 297 192 98 376
133 704 133 306 0 542 -43 720 -131 138 -68 250 -175 304 -289 117 -247 165
-731 111 -1120 -24 -170 -54 -312 -78 -360 -13 -25 -45 -64 -75 -88 -53 -43
-53 -43 -68 -22 -28 40 -195 110 -264 110 -50 0 -73 -31 -64 -84 9 -44 28 -61
96 -85 30 -10 70 -26 90 -34 l35 -16 -4 -60 -4 -61 71 0 71 0 0 30 c0 27 6 33
46 50 68 30 162 123 194 195 27 57 68 226 90 365 5 36 10 237 10 448 l0 383
-30 117 c-57 227 -130 362 -263 489 -128 121 -274 189 -537 250 -50 12 -147
16 -425 19 -316 2 -370 0 -445 -15z"/>
<path d="M1688 1327 c-84 -50 -131 -157 -131 -292 1 -141 49 -229 143 -260 62
-20 100 -13 146 27 47 42 79 100 99 182 27 113 -2 240 -72 308 -64 62 -122 73
-185 35z m48 -40 c22 -19 26 -29 20 -51 -9 -36 -49 -76 -77 -76 -30 0 -59 28
-59 58 0 24 58 92 78 92 6 0 23 -10 38 -23z m-41 -481 c6 -5 -5 0 -23 10 -18
10 -40 30 -49 44 -13 20 -8 18 23 -10 22 -19 44 -39 49 -44z"/>
<path d="M2973 1329 c-80 -39 -135 -159 -134 -289 1 -108 23 -170 78 -222 93
-88 213 -53 277 81 29 61 31 74 31 171 -1 122 -13 167 -62 221 -54 60 -120 73
-190 38z m183 -53 c19 -19 34 -44 34 -57 0 -25 -26 -59 -46 -59 -45 0 -94 52
-94 99 0 21 34 51 58 51 8 0 29 -15 48 -34z"/>
<path d="M2186 989 c-53 -42 -27 -148 47 -190 37 -21 57 -24 165 -27 143 -5
193 8 241 63 53 61 49 131 -10 164 -26 14 -29 13 -63 -17 -36 -32 -38 -32
-141 -32 -102 0 -105 1 -138 30 -41 35 -65 38 -101 9z"/>
</g>
</svg>
